<?xml version="1.0" encoding="UTF-8" standalone="no"?>
<!-- Created with Inkscape (http://www.inkscape.org/) -->

<svg
   xmlns:dc="http://purl.org/dc/elements/1.1/"
   xmlns:cc="http://creativecommons.org/ns#"
   xmlns:rdf="http://www.w3.org/1999/02/22-rdf-syntax-ns#"
   xmlns:svg="http://www.w3.org/2000/svg"
   xmlns="http://www.w3.org/2000/svg"
   xmlns:sodipodi="http://sodipodi.sourceforge.net/DTD/sodipodi-0.dtd"
   xmlns:inkscape="http://www.inkscape.org/namespaces/inkscape"
   version="1.1"
   width="903.48242"
   height="792.43671"
   id="svg2"
   inkscape:version="0.48.4 r9939"
   sodipodi:docname="SYB.svg"
   inkscape:export-filename="/Users/marcelloseri/Desktop/SYB.png"
   inkscape:export-xdpi="100.1"
   inkscape:export-ydpi="100.1">
  <metadata
     id="metadata9">
    <rdf:RDF>
      <cc:Work
         rdf:about="">
        <dc:format>image/svg+xml</dc:format>
        <dc:type
           rdf:resource="http://purl.org/dc/dcmitype/StillImage" />
        <dc:title>National_Trails_Icon</dc:title>
      </cc:Work>
    </rdf:RDF>
  </metadata>
  <sodipodi:namedview
     pagecolor="#ffffff"
     bordercolor="#666666"
     borderopacity="1"
     objecttolerance="10"
     gridtolerance="10"
     guidetolerance="10"
     inkscape:pageopacity="0"
     inkscape:pageshadow="2"
     inkscape:window-width="1286"
     inkscape:window-height="793"
     id="namedview7"
     showgrid="false"
     fit-margin-left="20"
     fit-margin-right="20"
     fit-margin-bottom="20"
     fit-margin-top="20"
     inkscape:zoom="0.35374732"
     inkscape:cx="-209.53995"
     inkscape:cy="408.95814"
     inkscape:window-x="200"
     inkscape:window-y="33"
     inkscape:window-maximized="0"
     inkscape:current-layer="layer1" />
  <title
     id="title3599">National_Trails_Icon</title>
  <defs
     id="defs4" />
  <g
     transform="matrix(0,1.3195149,1,0,2391.2406,415.18189)"
     id="layer1"
     style="display:inline">
    <g
       id="g2995">
      <path
         d="m 164.18469,-3156.8317 c 14.63828,0 25.99492,13.4926 25.99492,29.371 0,30.0343 -10.6198,53.0336 -32.83548,78.3594 -21.40864,24.4059 -31.62231,43.781 -61.502357,59.0549 -30.89757,15.794 -66.23115,22.973 -77.56499,29.5166 -46.50342,23.0993 -5.72345,71.4286 -44.084614,94.4799 -2.88652,1.7345 -6.193066,1.6978 -9.43532,-0.7108 l -21.18237,-15.7359 c -1.105326,-0.8211 -2.32111,-4.6202 -2.55812,-6.0722 -0.66148,-4.0526 -0.16926,-5.406 0.61179,-8.5396 6.335976,-13.9075 4.751736,-45.0753 3.675806,-61.5321 -0.908245,-12.2295 -4.408342,-14.4336 -10.176452,-16.5538 -22.63292,-8.3191 -67.621733,-29.3614 -96.964103,-55.4834 -33.77544,-30.0686 -53.10968,-63.0539 -53.10968,-96.783 0,-14.9675 11.69714,-29.3714 25.46547,-29.3714 z m -181.078555,-480.5637 c 1.87979,-1.2203 4.04347,-1.0498 5.8765,0.1088 27.86455,17.6123 65.0899,39.2348 101.58436,59.4796 12.499315,6.9339 44.023615,32.4363 63.494385,64.2562 18.5135,30.2555 23.69657,60.9325 24.50782,82.7316 8.33076,78.4933 5.22273,155.823 1.84436,234.3585 -0.59807,13.572 -10.44826,22.2304 -20.42613,22.2304 l -347.01278,0 c -11.38096,0 -19.5902,-12.241 -20.02929,-22.2304 -6.01481,-75.1873 -3.42648,-155.9377 -2.37692,-222.1352 0.459,-31.4622 11.67834,-76.7734 35.79446,-109.4938 15.13166,-20.5305 41.87132,-43.1333 71.50702,-59.2245 32.554655,-17.6761 64.707915,-36.7549 85.236215,-50.0812 z m -242.190305,-53.8452 489.42515,0 c 22.38498,0 40.4061,18.0211 40.4061,40.4061 l 0,782.6702 c 0,22.385 -18.02112,40.4061 -40.4061,40.4061 l -489.42515,0 c -22.38499,0 -40.40611,-18.0211 -40.40611,-40.4061 l 0,-782.6702 c 0,-22.385 18.02112,-40.4061 40.40611,-40.4061 z"
         id="path2987"
         style="color:#000000;fill:#000000;fill-opacity:1;fill-rule:evenodd;stroke:none;stroke-width:1;marker:none;visibility:visible;display:inline;overflow:visible;enable-background:accumulate"
         inkscape:connector-curvature="0"
         sodipodi:nodetypes="sssscssssccsssssssssccssccssssssssssss" />
      <path
         style="fill:#008b00;fill-opacity:0.83937833;stroke:none"
         d="m 57.0625,-3578.3438 c -50.4879686,0.8063 -100.996097,0.3937 -151.46875,2.0626 -23.58565,8.8928 -44.25041,25.0793 -61,43.5937 -26.03823,30.1336 -39.36448,69.3869 -43.53125,108.4375 123.031251,-0.018 246.062531,0.048 369.09375,-0.062 -1.45634,-29.5289 -9.96274,-58.8764 -26.78767,-83.3744 -18.53824,-28.8729 -43.874948,-53.4579 -74.93108,-68.0943 -3.55137,-2.15 -7.210086,-3.0254 -11.375,-2.5626 z"
         id="path2989"
         inkscape:connector-curvature="0" />
      <path
         style="fill:#008b00;fill-opacity:0.83937833;stroke:none"
         d="m -17.40625,-3624.9062 c -19.065003,10.7395 -37.666191,22.6439 -56.75,33.4374 39.292749,-0.3967 78.5914534,-0.5148 117.875,-1.5312 -19.258049,-11.0617 -38.1392531,-22.9064 -57.4375,-33.9688 -1.229167,0.6876 -2.458333,1.3751 -3.6875,2.0626 z"
         id="path2991"
         inkscape:connector-curvature="0" />
      <path
         style="fill:#008b00;fill-opacity:0.83937833;stroke:none"
         d="m -199.84375,-3443.9688 c -0.46304,69.7378 -3.85411,139.8578 4.0625,209.2813 1.88866,5.7758 8.13329,9.7717 14.125,7.8096 115.211108,-0.6339 230.573716,1.3574 345.6875,-1.2783 9.57721,-6.2599 5.73452,-19.9892 7.07956,-29.9025 2.85162,-63.3423 4.48791,-86.9068 -0.45456,-150.1913 -123.489583,0 -246.979167,0 -370.46875,0 -0.0104,1.4271 -0.0208,-37.1458 -0.0312,-35.7188 z"
         id="path2993"
         inkscape:connector-curvature="0"
         sodipodi:nodetypes="ccccccccc" />
    </g>
    <path
       style="fill:#000000;fill-opacity:1"
       d="m 344.52785,654.99582 c -5.44174,-0.50743 -25.79525,-2.35807 -45.23002,-4.11254 -42.19633,-3.80925 -63.90821,-10.01147 -86.42364,-24.68774 -37.18575,-24.23882 -64.45128,-61.25946 -91.8616,-124.72792 -10.43687,-24.16655 -24.840058,-56.50107 -32.007073,-71.85448 -7.167016,-15.3534 -13.03202,-29.98249 -13.033344,-32.50908 -0.0013,-2.52658 6.909336,-19.85892 15.357022,-38.51631 C 99.77688,339.93037 113.86688,308.3027 122.6403,288.30406 158.94356,205.55227 190.22926,170.66685 247.00061,149.6349 l 22.61501,-8.37813 96.1138,-1.09874 c 52.86259,-0.6043 109.27198,0.1037 125.3542,1.57333 26.02255,2.378 30.06671,3.49829 36.74939,10.18009 l 7.50901,7.50804 0.8534,231.03389 c 0.59537,161.18592 -0.0809,234.24225 -2.23708,241.64609 -5.06347,17.38739 -10.40092,19.14132 -66.96528,22.00543 -48.36766,2.44906 -101.60221,2.83635 -122.46521,0.89092 l 0,0 z"
       id="path3001"
       inkscape:connector-curvature="0"
       transform="matrix(0,1,0.75785427,0,-314.64737,-2391.2406)" />
    <path
       style="fill:#000000;fill-opacity:1"
       d="m 574.39451,661.12222 c -18.70427,-8.04353 -17.85092,4.60137 -17.85092,-264.51394 l 0,-243.53445 9.99631,-9.99632 c 9.53879,-9.53878 10.6887,-9.92485 25.12382,-8.43502 8.32012,0.85871 18.87608,3.49977 23.45769,5.86901 42.62946,22.04455 82.42824,81.11363 111.09778,164.89057 10.80722,31.58041 12.50669,34.69791 20.4189,37.45612 12.2634,4.27504 44.0881,3.72383 59.90928,-1.03765 7.39459,-2.22544 14.95202,-3.46785 16.79429,-2.76091 1.84227,0.70695 7.60934,9.03386 12.81572,18.50425 9.2384,16.80463 9.35792,17.44581 4.96826,26.65099 -6.26964,13.14762 -14.9357,17.91055 -36.01197,19.79246 -28.52577,2.54706 -41.0784,8.1835 -49.23979,22.10986 -3.84213,6.5561 -11.97784,30.93477 -18.07936,54.1748 -19.67299,74.93233 -28.21685,90.40572 -78.25696,141.72752 -28.93455,29.67565 -41.68802,37.79514 -64.83114,41.27483 -6.96869,1.04775 -14.76259,0.21428 -20.31191,-2.17212 l 0,0 z"
       id="path3003"
       inkscape:connector-curvature="0"
       transform="matrix(0,1,0.75785427,0,-314.64737,-2391.2406)" />
    <path
       style="fill:#009d00;fill-opacity:1;stroke:none"
       d="m 56.8125,-2235.6875 c -47.1818878,1.0173 -94.395489,0.3888 -141.5625,2.1563 -41.57867,17.8781 -71.50808,56.5434 -84.42171,99.6134 -4.50675,14.3596 -7.55786,29.5191 -9.29704,44.4178 111.572918,-0.018 223.145867,0.048 334.71875,-0.062 -1.86073,-37.4197 -17.44697,-73.3646 -41.31477,-101.8719 -15.332941,-18.4892 -33.944044,-35.1198 -56.43523,-44.1906 -0.555774,-0.097 -1.125376,-0.128 -1.6875,-0.062 z"
       id="path2986"
       inkscape:connector-curvature="0" />
    <path
       style="fill:#009d00;fill-opacity:1;stroke:none"
       d="m -11.40625,-2284.6562 c -14.770873,8.2232 -29.091743,17.2615 -43.6875,25.8124 29.308252,-0.3206 59.8387275,-0.3566 88.375,-1.1874 -14.346027,-8.516 -28.5728592,-17.2244 -43,-25.5938 l -0.867253,0.4979 -0.820247,0.4709 z"
       id="path2988"
       inkscape:connector-curvature="0" />
    <path
       style="fill:#009d00;fill-opacity:1;stroke:none"
       d="m -180.28125,-2046.8125 c -0.44299,52.4926 -1.66257,105.3759 4.90625,157.5 3.05972,5.9045 10.43183,2.6019 15.56238,3.1499 103.91273,-0.6907 207.95422,1.6728 311.78137,-1.4936 6.43086,-8.5745 2.02843,-20.1004 3.93411,-29.9337 2.40434,-47.252 3.65706,-94.7051 -0.30911,-141.9101 -111.895833,0 -223.791667,0 -335.6875,0 -0.0625,4.2292 -0.125,8.4583 -0.1875,12.6875 z"
       id="path2990"
       inkscape:connector-curvature="0" />
  </g>
</svg>
